<svg xmlns="http://www.w3.org/2000/svg" xmlns:xlink="http://www.w3.org/1999/xlink" width="500" zoomAndPan="magnify" viewBox="0 0 375 262.499992" height="350" preserveAspectRatio="xMidYMid meet" version="1.0"><defs><g/><clipPath id="422a58f637"><path d="M 81.550781 25.03125 L 293.707031 25.03125 L 293.707031 236.980469 L 81.550781 236.980469 Z M 81.550781 25.03125 " clip-rule="nonzero"/></clipPath><clipPath id="4b9ccae8e3"><path d="M 187.628906 25.03125 C 129.042969 25.03125 81.550781 72.476562 81.550781 131.007812 C 81.550781 189.535156 129.042969 236.980469 187.628906 236.980469 C 246.210938 236.980469 293.707031 189.535156 293.707031 131.007812 C 293.707031 72.476562 246.210938 25.03125 187.628906 25.03125 " clip-rule="nonzero"/></clipPath><clipPath id="7015cdae57"><path d="M 86.910156 30.386719 L 288.347656 30.386719 L 288.347656 231.625 L 86.910156 231.625 Z M 86.910156 30.386719 " clip-rule="nonzero"/></clipPath><clipPath id="06d445201e"><path d="M 187.628906 30.386719 C 132 30.386719 86.910156 75.433594 86.910156 131.007812 C 86.910156 186.578125 132 231.625 187.628906 231.625 C 243.253906 231.625 288.347656 186.578125 288.347656 131.007812 C 288.347656 75.433594 243.253906 30.386719 187.628906 30.386719 " clip-rule="nonzero"/></clipPath><clipPath id="0fe177bd28"><path d="M 90.613281 131.007812 L 284.496094 131.007812 L 284.496094 228.320312 L 90.613281 228.320312 Z M 90.613281 131.007812 " clip-rule="nonzero"/></clipPath><clipPath id="9ce018f7f9"><path d="M 90.753906 33.6875 L 284.636719 33.6875 L 284.636719 131.003906 L 90.753906 131.003906 Z M 90.753906 33.6875 " clip-rule="nonzero"/></clipPath><clipPath id="5944aeb59d"><path d="M 89.457031 114.082031 L 285.796875 114.082031 L 285.796875 147.929688 L 89.457031 147.929688 Z M 89.457031 114.082031 " clip-rule="nonzero"/></clipPath><clipPath id="8a025dd7b9"><path d="M 85.804688 120.511719 L 289.449219 120.511719 L 289.449219 141.5 L 85.804688 141.5 Z M 85.804688 120.511719 " clip-rule="nonzero"/></clipPath><clipPath id="6746eeff93"><path d="M 125.335938 68.773438 L 249.921875 68.773438 L 249.921875 193.238281 L 125.335938 193.238281 Z M 125.335938 68.773438 " clip-rule="nonzero"/></clipPath><clipPath id="4b1284dc93"><path d="M 187.628906 68.773438 C 153.222656 68.773438 125.335938 96.636719 125.335938 131.007812 C 125.335938 165.375 153.222656 193.238281 187.628906 193.238281 C 222.03125 193.238281 249.921875 165.375 249.921875 131.007812 C 249.921875 96.636719 222.03125 68.773438 187.628906 68.773438 " clip-rule="nonzero"/></clipPath><clipPath id="fa88c54ea6"><path d="M 200 107 L 336 107 L 336 177 L 200 177 Z M 200 107 " clip-rule="nonzero"/></clipPath><clipPath id="70058cfedd"><path d="M 193.914062 88.988281 L 367.859375 62.742188 L 384.5 173.03125 L 210.554688 199.277344 Z M 193.914062 88.988281 " clip-rule="nonzero"/></clipPath><clipPath id="ca2ddd129c"><path d="M 193.914062 88.988281 L 367.859375 62.742188 L 384.5 173.03125 L 210.554688 199.277344 Z M 193.914062 88.988281 " clip-rule="nonzero"/></clipPath><clipPath id="22cd4a76b6"><path d="M 193.914062 88.988281 L 367.859375 62.742188 L 384.5 173.03125 L 210.554688 199.277344 Z M 193.914062 88.988281 " clip-rule="nonzero"/></clipPath><clipPath id="8d83d6366f"><path d="M 269 85 L 303 85 L 303 154 L 269 154 Z M 269 85 " clip-rule="nonzero"/></clipPath><clipPath id="2c401edd9a"><path d="M 193.914062 88.988281 L 367.859375 62.742188 L 384.5 173.03125 L 210.554688 199.277344 Z M 193.914062 88.988281 " clip-rule="nonzero"/></clipPath><clipPath id="a96e792792"><path d="M 193.914062 88.988281 L 367.859375 62.742188 L 384.5 173.03125 L 210.554688 199.277344 Z M 193.914062 88.988281 " clip-rule="nonzero"/></clipPath><clipPath id="28da048345"><path d="M 193.914062 88.988281 L 367.859375 62.742188 L 384.5 173.03125 L 210.554688 199.277344 Z M 193.914062 88.988281 " clip-rule="nonzero"/></clipPath><clipPath id="5296ee2077"><path d="M 268 99 L 374 99 L 374 180 L 268 180 Z M 268 99 " clip-rule="nonzero"/></clipPath><clipPath id="9b8cb8eb2b"><path d="M 193.914062 88.988281 L 367.859375 62.742188 L 384.5 173.03125 L 210.554688 199.277344 Z M 193.914062 88.988281 " clip-rule="nonzero"/></clipPath><clipPath id="85a620f60e"><path d="M 193.914062 88.988281 L 367.859375 62.742188 L 384.5 173.03125 L 210.554688 199.277344 Z M 193.914062 88.988281 " clip-rule="nonzero"/></clipPath><clipPath id="297563ab3c"><path d="M 193.914062 88.988281 L 367.859375 62.742188 L 384.5 173.03125 L 210.554688 199.277344 Z M 193.914062 88.988281 " clip-rule="nonzero"/></clipPath><clipPath id="43a8619f76"><path d="M 220 143 L 265 143 L 265 158 L 220 158 Z M 220 143 " clip-rule="nonzero"/></clipPath><clipPath id="14ec0a6030"><path d="M 193.914062 88.988281 L 367.859375 62.742188 L 384.5 173.03125 L 210.554688 199.277344 Z M 193.914062 88.988281 " clip-rule="nonzero"/></clipPath><clipPath id="bf19028f41"><path d="M 193.914062 88.988281 L 367.859375 62.742188 L 384.5 173.03125 L 210.554688 199.277344 Z M 193.914062 88.988281 " clip-rule="nonzero"/></clipPath><clipPath id="c728aa3fc8"><path d="M 193.914062 88.988281 L 367.859375 62.742188 L 384.5 173.03125 L 210.554688 199.277344 Z M 193.914062 88.988281 " clip-rule="nonzero"/></clipPath><clipPath id="d67c9f58d7"><path d="M 332 68 L 346 68 L 346 105 L 332 105 Z M 332 68 " clip-rule="nonzero"/></clipPath><clipPath id="ff4b75152e"><path d="M 193.914062 88.988281 L 367.859375 62.742188 L 384.5 173.03125 L 210.554688 199.277344 Z M 193.914062 88.988281 " clip-rule="nonzero"/></clipPath><clipPath id="d953508170"><path d="M 193.914062 88.988281 L 367.859375 62.742188 L 384.5 173.03125 L 210.554688 199.277344 Z M 193.914062 88.988281 " clip-rule="nonzero"/></clipPath><clipPath id="29e3161cdd"><path d="M 193.914062 88.988281 L 367.859375 62.742188 L 384.5 173.03125 L 210.554688 199.277344 Z M 193.914062 88.988281 " clip-rule="nonzero"/></clipPath><clipPath id="43f6d35f53"><path d="M 39 78 L 175 78 L 175 148 L 39 148 Z M 39 78 " clip-rule="nonzero"/></clipPath><clipPath id="14d783d320"><path d="M 181.261719 165.546875 L 7.550781 193.289062 L -10.039062 83.148438 L 163.671875 55.40625 Z M 181.261719 165.546875 " clip-rule="nonzero"/></clipPath><clipPath id="a37ce845c0"><path d="M 181.261719 165.546875 L 7.550781 193.289062 L -10.039062 83.148438 L 163.671875 55.40625 Z M 181.261719 165.546875 " clip-rule="nonzero"/></clipPath><clipPath id="552942a04c"><path d="M 181.261719 165.546875 L 7.550781 193.289062 L -10.039062 83.148438 L 163.671875 55.40625 Z M 181.261719 165.546875 " clip-rule="nonzero"/></clipPath><clipPath id="c0830c403b"><path d="M 72 101 L 105 101 L 105 170 L 72 170 Z M 72 101 " clip-rule="nonzero"/></clipPath><clipPath id="c654d64ee9"><path d="M 181.261719 165.546875 L 7.550781 193.289062 L -10.039062 83.148438 L 163.671875 55.40625 Z M 181.261719 165.546875 " clip-rule="nonzero"/></clipPath><clipPath id="bec19ef291"><path d="M 181.261719 165.546875 L 7.550781 193.289062 L -10.039062 83.148438 L 163.671875 55.40625 Z M 181.261719 165.546875 " clip-rule="nonzero"/></clipPath><clipPath id="ab40676d97"><path d="M 181.261719 165.546875 L 7.550781 193.289062 L -10.039062 83.148438 L 163.671875 55.40625 Z M 181.261719 165.546875 " clip-rule="nonzero"/></clipPath><clipPath id="3dbdda0603"><path d="M 1 75 L 107 75 L 107 157 L 1 157 Z M 1 75 " clip-rule="nonzero"/></clipPath><clipPath id="a560b5d430"><path d="M 181.261719 165.546875 L 7.550781 193.289062 L -10.039062 83.148438 L 163.671875 55.40625 Z M 181.261719 165.546875 " clip-rule="nonzero"/></clipPath><clipPath id="d06cb5050e"><path d="M 181.261719 165.546875 L 7.550781 193.289062 L -10.039062 83.148438 L 163.671875 55.40625 Z M 181.261719 165.546875 " clip-rule="nonzero"/></clipPath><clipPath id="4d6709f09c"><path d="M 181.261719 165.546875 L 7.550781 193.289062 L -10.039062 83.148438 L 163.671875 55.40625 Z M 181.261719 165.546875 " clip-rule="nonzero"/></clipPath><clipPath id="534de086b6"><path d="M 109 97 L 155 97 L 155 112 L 109 112 Z M 109 97 " clip-rule="nonzero"/></clipPath><clipPath id="5233011876"><path d="M 181.261719 165.546875 L 7.550781 193.289062 L -10.039062 83.148438 L 163.671875 55.40625 Z M 181.261719 165.546875 " clip-rule="nonzero"/></clipPath><clipPath id="58d94e0d02"><path d="M 181.261719 165.546875 L 7.550781 193.289062 L -10.039062 83.148438 L 163.671875 55.40625 Z M 181.261719 165.546875 " clip-rule="nonzero"/></clipPath><clipPath id="229442542c"><path d="M 181.261719 165.546875 L 7.550781 193.289062 L -10.039062 83.148438 L 163.671875 55.40625 Z M 181.261719 165.546875 " clip-rule="nonzero"/></clipPath><clipPath id="b8a1d30241"><path d="M 29 151 L 43 151 L 43 188 L 29 188 Z M 29 151 " clip-rule="nonzero"/></clipPath><clipPath id="e3e29ef6fc"><path d="M 181.261719 165.546875 L 7.550781 193.289062 L -10.039062 83.148438 L 163.671875 55.40625 Z M 181.261719 165.546875 " clip-rule="nonzero"/></clipPath><clipPath id="ef35fbe47d"><path d="M 181.261719 165.546875 L 7.550781 193.289062 L -10.039062 83.148438 L 163.671875 55.40625 Z M 181.261719 165.546875 " clip-rule="nonzero"/></clipPath><clipPath id="fd45c0fcbc"><path d="M 181.261719 165.546875 L 7.550781 193.289062 L -10.039062 83.148438 L 163.671875 55.40625 Z M 181.261719 165.546875 " clip-rule="nonzero"/></clipPath><clipPath id="9d67fb4b30"><path d="M 160.554688 103.933594 L 214.890625 103.933594 L 214.890625 158.269531 L 160.554688 158.269531 Z M 160.554688 103.933594 " clip-rule="nonzero"/></clipPath><clipPath id="f14f13557d"><path d="M 165.582031 108.960938 L 209.5 108.960938 L 209.5 152.878906 L 165.582031 152.878906 Z M 165.582031 108.960938 " clip-rule="nonzero"/></clipPath><clipPath id="ae96c863d5"><path d="M 183.457031 126.867188 L 191.644531 126.867188 L 191.644531 135 L 183.457031 135 Z M 183.457031 126.867188 " clip-rule="nonzero"/></clipPath><clipPath id="e04aff7464"><path d="M 183.457031 126.867188 L 191.644531 126.867188 L 191.644531 135.054688 L 183.457031 135.054688 Z M 183.457031 126.867188 " clip-rule="nonzero"/></clipPath></defs><g clip-path="url(#422a58f637)"><g clip-path="url(#4b9ccae8e3)"><path fill="#141414" d="M 81.550781 25.03125 L 293.707031 25.03125 L 293.707031 236.980469 L 81.550781 236.980469 Z M 81.550781 25.03125 " fill-opacity="1" fill-rule="nonzero"/></g></g><g clip-path="url(#7015cdae57)"><g clip-path="url(#06d445201e)"><path fill="#00bf63" d="M 86.910156 30.386719 L 288.347656 30.386719 L 288.347656 231.625 L 86.910156 231.625 Z M 86.910156 30.386719 " fill-opacity="1" fill-rule="nonzero"/></g></g><g clip-path="url(#0fe177bd28)"><path fill="#ffffff" d="M 284.414062 131.007812 C 284.414062 184.757812 241.019531 228.320312 187.472656 228.320312 C 133.925781 228.320312 90.695312 184.757812 90.695312 131.007812 Z M 284.414062 131.007812 " fill-opacity="1" fill-rule="nonzero"/></g><g clip-path="url(#9ce018f7f9)"><path fill="#ffffff" d="M 90.835938 131.003906 C 90.835938 77.25 134.230469 33.6875 187.777344 33.6875 C 241.324219 33.6875 284.554688 77.25 284.554688 131.003906 Z M 90.835938 131.003906 " fill-opacity="1" fill-rule="nonzero"/></g><g clip-path="url(#5944aeb59d)"><path fill="#00bf63" d="M 89.457031 114.082031 L 285.515625 114.082031 L 285.515625 147.8125 L 89.457031 147.8125 Z M 89.457031 114.082031 " fill-opacity="1" fill-rule="nonzero"/></g><g clip-path="url(#8a025dd7b9)"><path fill="#141414" d="M 85.804688 120.511719 L 289.242188 120.511719 L 289.242188 141.59375 L 85.804688 141.59375 Z M 85.804688 120.511719 " fill-opacity="1" fill-rule="nonzero"/></g><g fill="#2f272a" fill-opacity="1"><g transform="translate(140.714929, 76.422111)"><g><path d="M 4.78125 -11.066406 C 5.378906 -11.84375 5.664062 -12.738281 5.664062 -13.746094 C 5.664062 -14.753906 5.363281 -15.710938 4.746094 -16.597656 C 3.945312 -17.75 2.898438 -18.445312 1.589844 -18.726562 C 0.277344 -18.980469 -0.945312 -18.726562 -2.078125 -17.941406 L -7.855469 -13.9375 L 1.222656 -0.847656 L 4.46875 -3.097656 L 1.101562 -7.949219 L 1.890625 -8.492188 L 8.324219 -5.773438 L 12.042969 -8.351562 Z M 1.296875 -11.957031 L -0.710938 -10.566406 L -2.648438 -13.359375 L -0.640625 -14.75 C -0.238281 -15.03125 0.1875 -15.121094 0.632812 -15.039062 C 1.085938 -14.941406 1.457031 -14.707031 1.722656 -14.324219 C 2 -13.921875 2.09375 -13.492188 2.011719 -13.050781 C 1.945312 -12.589844 1.695312 -12.238281 1.296875 -11.957031 Z M 1.296875 -11.957031 "/></g></g></g><g fill="#2f272a" fill-opacity="1"><g transform="translate(151.005824, 68.944536)"><g><path d="M 11.664062 -5.125 L 15.574219 -6.84375 L 3.3125 -18.855469 L -0.75 -17.066406 L -0.195312 0.0859375 L 3.714844 -1.632812 L 3.511719 -4.628906 L 9.597656 -7.300781 Z M 3.300781 -8.0625 L 2.898438 -14.308594 L 7.226562 -9.789062 Z M 3.300781 -8.0625 "/></g></g></g><g fill="#2f272a" fill-opacity="1"><g transform="translate(165.22784, 62.972253)"><g><path d="M 1.558594 -0.425781 L 5.367188 -1.464844 L 1.171875 -16.832031 L -2.640625 -15.789062 Z M 1.558594 -0.425781 "/></g></g></g><g fill="#2f272a" fill-opacity="1"><g transform="translate(170.638987, 60.923993)"><g><path d="M 11.089844 -17.246094 L 12.199219 -7.195312 L 3.828125 -16.445312 L -0.265625 -15.996094 L 1.476562 -0.164062 L 5.402344 -0.59375 L 4.292969 -10.683594 L 12.644531 -1.390625 L 16.761719 -1.84375 L 15.019531 -17.675781 Z M 11.089844 -17.246094 "/></g></g></g><g fill="#2f272a" fill-opacity="1"><g transform="translate(186.718786, 58.725911)"><g><path d="M 17.289062 -13.757812 L 11.46875 -6.308594 L 7.835938 -15.023438 L 3.585938 -15.589844 L 1.472656 0.195312 L 5.390625 0.71875 L 6.683594 -8.960938 L 10.53125 0.550781 L 16.785156 -7.613281 L 15.492188 2.070312 L 19.40625 2.59375 L 21.519531 -13.191406 Z M 17.289062 -13.757812 "/></g></g></g><g fill="#2f272a" fill-opacity="1"><g transform="translate(205.519584, 61.243661)"><g><path d="M 11.898438 4.558594 L 15.882812 6.085938 L 15.613281 -11.074219 L 11.46875 -12.660156 L -0.199219 -0.0742188 L 3.789062 1.453125 L 5.75 -0.820312 L 11.957031 1.558594 Z M 8.015625 -3.410156 L 12.125 -8.136719 L 12.023438 -1.875 Z M 8.015625 -3.410156 "/></g></g></g><g fill="#2f272a" fill-opacity="1"><g transform="translate(219.513234, 66.291557)"><g><path d="M 19.542969 -6.203125 L 13.984375 2.242188 L 13.441406 -10.21875 L 10 -12.484375 L 1.242188 0.816406 L 4.539062 2.988281 L 10.121094 -5.488281 L 10.625 6.996094 L 14.082031 9.273438 L 22.84375 -4.03125 Z M 19.542969 -6.203125 "/></g></g></g><g fill="#2f272a" fill-opacity="1"><g transform="translate(121.184043, 182.728567)"><g><path d="M 3.625 4.203125 C 4.164062 4.800781 4.792969 5.246094 5.53125 5.519531 C 6.261719 5.804688 7.007812 5.898438 7.785156 5.828125 L 7.570312 3.503906 C 6.703125 3.585938 5.984375 3.292969 5.375 2.621094 C 4.871094 2.0625 4.628906 1.425781 4.671875 0.722656 C 4.699219 0.015625 5.003906 -0.59375 5.5625 -1.097656 C 6.121094 -1.601562 6.746094 -1.835938 7.460938 -1.800781 C 8.15625 -1.765625 8.777344 -1.46875 9.28125 -0.910156 C 9.890625 -0.234375 10.097656 0.519531 9.9375 1.363281 L 12.226562 1.808594 C 12.375 1.046875 12.347656 0.300781 12.148438 -0.460938 C 11.9375 -1.214844 11.570312 -1.894531 11.03125 -2.492188 C 10.101562 -3.519531 8.945312 -4.066406 7.570312 -4.136719 C 6.195312 -4.203125 5 -3.769531 3.980469 -2.847656 C 2.953125 -1.917969 2.398438 -0.769531 2.328125 0.605469 C 2.257812 1.976562 2.695312 3.175781 3.625 4.203125 Z M 3.625 4.203125 "/></g></g></g><g fill="#2f272a" fill-opacity="1"><g transform="translate(128.266157, 190.506168)"><g><path d="M 3.695312 3.359375 C 4.578125 4.121094 5.519531 4.519531 6.53125 4.574219 C 7.546875 4.628906 8.351562 4.3125 8.945312 3.625 L 13.273438 -1.390625 L 11.445312 -2.96875 L 7.414062 1.707031 C 7.128906 2.039062 6.753906 2.214844 6.296875 2.230469 C 5.835938 2.246094 5.429688 2.082031 5.066406 1.769531 C 4.695312 1.445312 4.484375 1.074219 4.429688 0.621094 C 4.378906 0.164062 4.507812 -0.222656 4.792969 -0.554688 L 8.824219 -5.230469 L 7 -6.804688 L 2.671875 -1.789062 C 2.078125 -1.101562 1.875 -0.265625 2.074219 0.730469 C 2.277344 1.726562 2.8125 2.597656 3.695312 3.359375 Z M 3.695312 3.359375 "/></g></g></g><g fill="#2f272a" fill-opacity="1"><g transform="translate(136.381987, 197.378306)"><g><path d="M 3.242188 2.378906 C 4.035156 2.917969 4.84375 3.160156 5.691406 3.09375 C 6.535156 3.03125 7.21875 2.632812 7.714844 1.90625 C 8.039062 1.433594 8.21875 0.960938 8.273438 0.496094 C 8.324219 0.0273438 8.269531 -0.371094 8.117188 -0.726562 C 7.949219 -1.078125 7.765625 -1.425781 7.542969 -1.765625 C 7.308594 -2.113281 7.09375 -2.417969 6.875 -2.675781 C 6.648438 -2.941406 6.5 -3.203125 6.410156 -3.464844 C 6.316406 -3.71875 6.347656 -3.949219 6.488281 -4.152344 C 6.621094 -4.34375 6.769531 -4.445312 6.972656 -4.464844 C 7.164062 -4.472656 7.363281 -4.417969 7.554688 -4.285156 C 7.972656 -4 8.238281 -3.472656 8.375 -2.703125 L 10.46875 -3.058594 C 10.390625 -3.632812 10.207031 -4.167969 9.914062 -4.679688 C 9.613281 -5.203125 9.226562 -5.625 8.734375 -5.960938 C 8.027344 -6.445312 7.269531 -6.648438 6.46875 -6.601562 C 5.660156 -6.542969 4.992188 -6.121094 4.464844 -5.351562 C 4.113281 -4.835938 3.9375 -4.328125 3.960938 -3.808594 C 3.980469 -3.292969 4.113281 -2.839844 4.375 -2.441406 C 4.617188 -2.039062 4.875 -1.660156 5.164062 -1.300781 C 5.457031 -0.945312 5.667969 -0.613281 5.820312 -0.289062 C 5.976562 0.0390625 5.972656 0.320312 5.8125 0.554688 C 5.679688 0.746094 5.484375 0.847656 5.261719 0.851562 C 5.03125 0.867188 4.78125 0.773438 4.503906 0.585938 C 4.136719 0.335938 3.886719 0.0390625 3.742188 -0.328125 C 3.582031 -0.6875 3.546875 -1.074219 3.628906 -1.492188 L 1.363281 -1.578125 C 1.265625 -0.863281 1.390625 -0.148438 1.710938 0.574219 C 2.035156 1.296875 2.546875 1.902344 3.242188 2.378906 Z M 3.242188 2.378906 "/></g></g></g><g fill="#2f272a" fill-opacity="1"><g transform="translate(143.282671, 202.060241)"><g><path d="M 11.105469 -4.972656 L 4.816406 -8.445312 L 3.800781 -6.609375 L 5.902344 -5.449219 L 2.210938 1.222656 L 4.3125 2.382812 L 8 -4.289062 L 10.089844 -3.132812 Z M 11.105469 -4.972656 "/></g></g></g><g fill="#2f272a" fill-opacity="1"><g transform="translate(150.35474, 206.046666)"><g><path d="M 5.085938 2.222656 C 6.355469 2.746094 7.628906 2.75 8.898438 2.21875 C 10.167969 1.6875 11.070312 0.78125 11.597656 -0.5 C 12.117188 -1.773438 12.109375 -3.050781 11.578125 -4.320312 C 11.046875 -5.589844 10.144531 -6.492188 8.871094 -7.011719 C 7.585938 -7.539062 6.308594 -7.53125 5.039062 -7 C 3.773438 -6.46875 2.878906 -5.558594 2.359375 -4.289062 C 1.832031 -3.003906 1.828125 -1.730469 2.359375 -0.460938 C 2.890625 0.808594 3.800781 1.699219 5.085938 2.222656 Z M 5.980469 0.0390625 C 5.285156 -0.246094 4.789062 -0.714844 4.527344 -1.367188 C 4.246094 -2.015625 4.257812 -2.695312 4.542969 -3.390625 C 4.828125 -4.089844 5.292969 -4.570312 5.953125 -4.847656 C 6.59375 -5.117188 7.28125 -5.113281 7.976562 -4.828125 C 8.671875 -4.542969 9.148438 -4.070312 9.429688 -3.421875 C 9.695312 -2.765625 9.699219 -2.09375 9.414062 -1.394531 C 9.128906 -0.699219 8.648438 -0.210938 8.003906 0.0585938 C 7.34375 0.335938 6.675781 0.324219 5.980469 0.0390625 Z M 5.980469 0.0390625 "/></g></g></g><g fill="#2f272a" fill-opacity="1"><g transform="translate(161.436093, 210.589352)"><g><path d="M 11.382812 -7.234375 L 7.371094 -3.089844 L 5.726562 -8.613281 L 3.183594 -9.234375 L 0.882812 0.214844 L 3.226562 0.785156 L 4.636719 -5.007812 L 6.359375 1.015625 L 10.683594 -3.535156 L 9.269531 2.257812 L 11.613281 2.828125 L 13.914062 -6.617188 Z M 11.382812 -7.234375 "/></g></g></g><g fill="#2f272a" fill-opacity="1"><g transform="translate(174.551099, 213.5064)"><g/></g></g><g fill="#2f272a" fill-opacity="1"><g transform="translate(178.280629, 214.08615)"><g><path d="M 4 0.398438 C 4.957031 0.464844 5.777344 0.261719 6.472656 -0.226562 C 7.167969 -0.710938 7.554688 -1.398438 7.613281 -2.28125 C 7.652344 -2.847656 7.566406 -3.347656 7.375 -3.777344 C 7.183594 -4.207031 6.933594 -4.523438 6.625 -4.75 C 6.300781 -4.96875 5.964844 -5.171875 5.597656 -5.351562 C 5.222656 -5.535156 4.878906 -5.6875 4.5625 -5.800781 C 4.234375 -5.914062 3.96875 -6.058594 3.761719 -6.242188 C 3.550781 -6.414062 3.460938 -6.628906 3.480469 -6.875 C 3.496094 -7.105469 3.570312 -7.269531 3.734375 -7.386719 C 3.898438 -7.496094 4.097656 -7.546875 4.328125 -7.53125 C 4.832031 -7.496094 5.332031 -7.175781 5.835938 -6.582031 L 7.464844 -7.957031 C 7.105469 -8.410156 6.675781 -8.773438 6.160156 -9.070312 C 5.636719 -9.367188 5.089844 -9.53125 4.492188 -9.574219 C 3.640625 -9.628906 2.882812 -9.421875 2.21875 -8.972656 C 1.550781 -8.511719 1.191406 -7.808594 1.128906 -6.875 C 1.085938 -6.253906 1.191406 -5.726562 1.476562 -5.292969 C 1.757812 -4.859375 2.101562 -4.535156 2.527344 -4.324219 C 2.941406 -4.101562 3.355469 -3.90625 3.789062 -3.746094 C 4.21875 -3.585938 4.570312 -3.40625 4.867188 -3.207031 C 5.167969 -3.003906 5.304688 -2.761719 5.289062 -2.476562 C 5.269531 -2.242188 5.15625 -2.054688 4.964844 -1.9375 C 4.773438 -1.808594 4.511719 -1.761719 4.175781 -1.785156 C 3.734375 -1.8125 3.367188 -1.941406 3.058594 -2.183594 C 2.734375 -2.414062 2.511719 -2.726562 2.367188 -3.128906 L 0.371094 -2.054688 C 0.652344 -1.386719 1.121094 -0.832031 1.765625 -0.375 C 2.410156 0.0859375 3.160156 0.34375 4 0.398438 Z M 4 0.398438 "/></g></g></g><g fill="#2f272a" fill-opacity="1"><g transform="translate(186.629417, 214.630549)"><g><path d="M 4.882812 -9.886719 L 0.59375 -9.75 L 0.90625 -0.03125 L 3.316406 -0.109375 L 3.191406 -3.941406 L 5.070312 -4.003906 C 5.902344 -4.03125 6.59375 -4.324219 7.144531 -4.902344 C 7.695312 -5.464844 7.960938 -6.171875 7.933594 -7.003906 C 7.90625 -7.832031 7.597656 -8.523438 7.007812 -9.085938 C 6.421875 -9.636719 5.710938 -9.914062 4.882812 -9.886719 Z M 4.605469 -5.949219 L 3.128906 -5.898438 L 3.070312 -7.726562 L 4.546875 -7.773438 C 4.847656 -7.785156 5.09375 -7.703125 5.308594 -7.539062 C 5.507812 -7.378906 5.617188 -7.160156 5.625 -6.902344 C 5.636719 -6.628906 5.539062 -6.40625 5.351562 -6.230469 C 5.148438 -6.042969 4.90625 -5.957031 4.605469 -5.949219 Z M 4.605469 -5.949219 "/></g></g></g><g fill="#2f272a" fill-opacity="1"><g transform="translate(195.392017, 214.331694)"><g><path d="M 5.652344 -4.714844 C 6.191406 -4.972656 6.59375 -5.382812 6.871094 -5.933594 C 7.144531 -6.480469 7.246094 -7.085938 7.152344 -7.738281 C 7.035156 -8.585938 6.65625 -9.253906 6.019531 -9.769531 C 5.375 -10.265625 4.640625 -10.464844 3.804688 -10.347656 L -0.445312 -9.757812 L 0.898438 -0.125 L 3.289062 -0.457031 L 2.789062 -4.027344 L 3.367188 -4.109375 L 6.125 -0.855469 L 8.859375 -1.234375 Z M 3.996094 -6.160156 L 2.519531 -5.953125 L 2.234375 -8.007812 L 3.710938 -8.214844 C 4.003906 -8.257812 4.265625 -8.1875 4.484375 -8.023438 C 4.703125 -7.84375 4.839844 -7.613281 4.882812 -7.332031 C 4.921875 -7.035156 4.851562 -6.777344 4.6875 -6.558594 C 4.523438 -6.324219 4.292969 -6.203125 3.996094 -6.160156 Z M 3.996094 -6.160156 "/></g></g></g><g fill="#2f272a" fill-opacity="1"><g transform="translate(204.572795, 212.938931)"><g><path d="M 0.960938 -0.214844 L 3.3125 -0.746094 L 1.179688 -10.230469 L -1.171875 -9.703125 Z M 0.960938 -0.214844 "/></g></g></g><g fill="#2f272a" fill-opacity="1"><g transform="translate(209.421024, 211.990481)"><g><path d="M 4.4375 -11.703125 L 6.371094 -5.84375 L 0.203125 -10.308594 L -2.183594 -9.519531 L 0.863281 -0.285156 L 3.152344 -1.039062 L 1.210938 -6.925781 L 7.375 -2.433594 L 9.777344 -3.226562 L 6.730469 -12.460938 Z M 4.4375 -11.703125 "/></g></g></g><g fill="#2f272a" fill-opacity="1"><g transform="translate(220.745524, 208.151893)"><g><path d="M 9.222656 -4.453125 L 2.589844 -7.367188 L 4.484375 -12.960938 L 1.714844 -11.625 L 0.335938 -6.941406 L -1.238281 -10.199219 L -3.410156 -9.152344 L 0.816406 -0.394531 L 2.988281 -1.441406 L 0.992188 -5.574219 L 6.339844 -3.058594 Z M 9.222656 -4.453125 "/></g></g></g><g fill="#2f272a" fill-opacity="1"><g transform="translate(229.973776, 203.571993)"><g><path d="M 1.730469 -3.527344 L -2.261719 -10.023438 L -4.316406 -8.761719 L 0.773438 -0.476562 L 5.492188 -3.371094 L 4.390625 -5.164062 Z M 1.730469 -3.527344 "/></g></g></g><g fill="#2f272a" fill-opacity="1"><g transform="translate(235.906397, 199.938018)"><g><path d="M 1.25 -10.433594 L -0.0078125 -12.121094 L -5.019531 -8.386719 L 0.789062 -0.589844 L 5.800781 -4.320312 L 4.546875 -6.007812 L 1.46875 -3.714844 L 0.449219 -5.085938 L 3.089844 -7.054688 L 1.832031 -8.738281 L -0.808594 -6.769531 L -1.828125 -8.144531 Z M 1.25 -10.433594 "/></g></g></g><g fill="#2f272a" fill-opacity="1"><g transform="translate(242.654614, 194.904276)"><g><path d="M 1.960938 -7.09375 C 2.257812 -7.613281 2.355469 -8.179688 2.269531 -8.789062 C 2.183594 -9.398438 1.921875 -9.949219 1.476562 -10.4375 C 0.894531 -11.066406 0.203125 -11.398438 -0.613281 -11.457031 C -1.425781 -11.5 -2.144531 -11.246094 -2.761719 -10.675781 L -5.921875 -7.765625 L 0.667969 -0.613281 L 2.441406 -2.25 L 0 -4.898438 L 0.429688 -5.296875 L 4.550781 -4.191406 L 6.582031 -6.0625 Z M -0.222656 -7.339844 L -1.316406 -6.332031 L -2.722656 -7.855469 L -1.625 -8.867188 C -1.40625 -9.066406 -1.15625 -9.160156 -0.882812 -9.148438 C -0.597656 -9.125 -0.355469 -9.015625 -0.160156 -8.804688 C 0.0390625 -8.585938 0.132812 -8.335938 0.121094 -8.058594 C 0.117188 -7.777344 -0.00390625 -7.542969 -0.222656 -7.339844 Z M -0.222656 -7.339844 "/></g></g></g><g fill="#2f272a" fill-opacity="1"><g transform="translate(249.539254, 188.48462)"><g><path d="M 2.753906 -2.929688 C 3.390625 -3.648438 3.726562 -4.421875 3.765625 -5.269531 C 3.804688 -6.117188 3.492188 -6.84375 2.828125 -7.425781 C 2.402344 -7.804688 1.957031 -8.042969 1.5 -8.152344 C 1.042969 -8.257812 0.636719 -8.253906 0.269531 -8.144531 C -0.101562 -8.023438 -0.46875 -7.878906 -0.835938 -7.699219 C -1.207031 -7.511719 -1.535156 -7.335938 -1.820312 -7.152344 C -2.109375 -6.957031 -2.386719 -6.839844 -2.660156 -6.785156 C -2.921875 -6.722656 -3.144531 -6.78125 -3.332031 -6.945312 C -3.507812 -7.101562 -3.589844 -7.261719 -3.585938 -7.460938 C -3.570312 -7.65625 -3.488281 -7.84375 -3.335938 -8.019531 C -3 -8.398438 -2.441406 -8.601562 -1.664062 -8.640625 L -1.761719 -10.765625 C -2.339844 -10.757812 -2.894531 -10.640625 -3.4375 -10.410156 C -3.992188 -10.175781 -4.460938 -9.84375 -4.855469 -9.394531 C -5.417969 -8.753906 -5.714844 -8.027344 -5.765625 -7.222656 C -5.804688 -6.414062 -5.464844 -5.699219 -4.765625 -5.082031 C -4.300781 -4.671875 -3.816406 -4.433594 -3.300781 -4.394531 C -2.78125 -4.351562 -2.316406 -4.429688 -1.890625 -4.640625 C -1.460938 -4.832031 -1.050781 -5.042969 -0.664062 -5.285156 C -0.273438 -5.53125 0.0820312 -5.699219 0.421875 -5.8125 C 0.765625 -5.925781 1.042969 -5.890625 1.257812 -5.699219 C 1.433594 -5.546875 1.511719 -5.339844 1.488281 -5.117188 C 1.472656 -4.886719 1.351562 -4.652344 1.128906 -4.398438 C 0.835938 -4.066406 0.511719 -3.851562 0.128906 -3.757812 C -0.246094 -3.640625 -0.632812 -3.652344 -1.039062 -3.785156 L -1.402344 -1.546875 C -0.703125 -1.359375 0.0234375 -1.398438 0.777344 -1.628906 C 1.535156 -1.859375 2.199219 -2.296875 2.753906 -2.929688 Z M 2.753906 -2.929688 "/></g></g></g><g clip-path="url(#6746eeff93)"><g clip-path="url(#4b1284dc93)"><path fill="#00bf63" d="M 125.335938 68.773438 L 249.921875 68.773438 L 249.921875 193.238281 L 125.335938 193.238281 Z M 125.335938 68.773438 " fill-opacity="1" fill-rule="nonzero"/></g></g><g fill="#fff3e1" fill-opacity="1"><g transform="translate(95.36297, 134.069826)"><g><path d="M 4.558594 -4.800781 L 4.558594 -6.125 L 0.621094 -6.125 L 0.621094 0 L 4.558594 0 L 4.558594 -1.324219 L 2.140625 -1.324219 L 2.140625 -2.402344 L 4.214844 -2.402344 L 4.214844 -3.722656 L 2.140625 -3.722656 L 2.140625 -4.800781 Z M 4.558594 -4.800781 "/></g></g></g><g fill="#fff3e1" fill-opacity="1"><g transform="translate(100.287288, 134.069826)"><g><path d="M 2.53125 0.0820312 C 3.136719 0.0820312 3.644531 -0.0820312 4.058594 -0.417969 C 4.476562 -0.75 4.6875 -1.199219 4.6875 -1.757812 C 4.6875 -2.117188 4.613281 -2.425781 4.476562 -2.6875 C 4.335938 -2.949219 4.164062 -3.136719 3.960938 -3.265625 C 3.75 -3.390625 3.527344 -3.503906 3.292969 -3.601562 C 3.046875 -3.699219 2.824219 -3.78125 2.621094 -3.839844 C 2.410156 -3.894531 2.238281 -3.976562 2.097656 -4.082031 C 1.960938 -4.183594 1.894531 -4.3125 1.894531 -4.46875 C 1.894531 -4.613281 1.9375 -4.722656 2.035156 -4.800781 C 2.132812 -4.875 2.253906 -4.917969 2.402344 -4.917969 C 2.71875 -4.917969 3.046875 -4.738281 3.390625 -4.386719 L 4.351562 -5.316406 C 4.109375 -5.585938 3.824219 -5.800781 3.488281 -5.960938 C 3.144531 -6.125 2.792969 -6.207031 2.417969 -6.207031 C 1.878906 -6.207031 1.414062 -6.042969 1.011719 -5.734375 C 0.613281 -5.414062 0.417969 -4.957031 0.417969 -4.371094 C 0.417969 -3.976562 0.507812 -3.652344 0.703125 -3.390625 C 0.898438 -3.128906 1.128906 -2.941406 1.40625 -2.824219 C 1.675781 -2.703125 1.945312 -2.597656 2.222656 -2.515625 C 2.5 -2.433594 2.726562 -2.335938 2.925781 -2.222656 C 3.121094 -2.105469 3.21875 -1.960938 3.21875 -1.78125 C 3.21875 -1.632812 3.152344 -1.511719 3.039062 -1.429688 C 2.925781 -1.339844 2.761719 -1.296875 2.546875 -1.296875 C 2.269531 -1.296875 2.035156 -1.363281 1.828125 -1.503906 C 1.617188 -1.632812 1.460938 -1.820312 1.355469 -2.066406 L 0.148438 -1.308594 C 0.351562 -0.898438 0.667969 -0.570312 1.09375 -0.308594 C 1.519531 -0.0507812 2 0.0820312 2.53125 0.0820312 Z M 2.53125 0.0820312 "/></g></g></g><g fill="#fff3e1" fill-opacity="1"><g transform="translate(105.195272, 134.069826)"><g><path d="M 4.605469 -6.125 L 0.0820312 -6.125 L 0.0820312 -4.800781 L 1.59375 -4.800781 L 1.59375 0 L 3.105469 0 L 3.105469 -4.800781 L 4.605469 -4.800781 Z M 4.605469 -6.125 "/></g></g></g><g fill="#fff3e1" fill-opacity="1"><g transform="translate(109.882762, 134.069826)"><g><path d="M 0.570312 0 L 2.671875 0 C 3.675781 0 4.453125 -0.285156 5 -0.867188 C 5.539062 -1.4375 5.816406 -2.171875 5.816406 -3.0625 C 5.816406 -3.945312 5.539062 -4.679688 5 -5.261719 C 4.453125 -5.832031 3.675781 -6.125 2.671875 -6.125 L 0.570312 -6.125 Z M 2.089844 -1.324219 L 2.089844 -4.800781 L 2.589844 -4.800781 C 3.128906 -4.800781 3.527344 -4.640625 3.804688 -4.320312 C 4.082031 -3.992188 4.222656 -3.578125 4.222656 -3.0625 C 4.222656 -2.539062 4.082031 -2.125 3.804688 -1.804688 C 3.527344 -1.476562 3.128906 -1.324219 2.589844 -1.324219 Z M 2.089844 -1.324219 "/></g></g></g><g fill="#fff3e1" fill-opacity="1"><g transform="translate(259.32287, 134.069826)"><g><path d="M 2.238281 -1.28125 C 3.070312 -2.179688 3.601562 -2.824219 3.847656 -3.203125 C 4.082031 -3.578125 4.207031 -3.992188 4.214844 -4.460938 C 4.214844 -4.957031 4.035156 -5.375 3.675781 -5.710938 C 3.308594 -6.042969 2.851562 -6.214844 2.3125 -6.214844 C 1.722656 -6.214844 1.226562 -6.027344 0.816406 -5.652344 C 0.410156 -5.277344 0.230469 -4.800781 0.292969 -4.246094 L 1.707031 -4.246094 C 1.667969 -4.441406 1.699219 -4.605469 1.804688 -4.738281 C 1.910156 -4.859375 2.058594 -4.925781 2.238281 -4.925781 C 2.386719 -4.925781 2.523438 -4.875 2.636719 -4.792969 C 2.753906 -4.703125 2.808594 -4.550781 2.808594 -4.335938 C 2.808594 -4.191406 2.769531 -4.042969 2.695312 -3.894531 C 2.621094 -3.75 2.410156 -3.464844 2.058594 -3.039062 C 1.699219 -2.605469 1.136719 -1.960938 0.359375 -1.101562 L 0.359375 0 L 4.304688 0 L 4.304688 -1.28125 Z M 2.238281 -1.28125 "/></g></g></g><g fill="#fff3e1" fill-opacity="1"><g transform="translate(263.91236, 134.069826)"><g><path d="M 2.644531 0.0820312 C 3.375 0.0820312 3.9375 -0.195312 4.34375 -0.75 C 4.753906 -1.308594 4.957031 -2.074219 4.957031 -3.0625 C 4.957031 -4.042969 4.753906 -4.820312 4.34375 -5.375 C 3.9375 -5.929688 3.375 -6.207031 2.644531 -6.207031 C 1.910156 -6.207031 1.339844 -5.929688 0.929688 -5.375 C 0.523438 -4.820312 0.328125 -4.042969 0.328125 -3.0625 C 0.328125 -2.074219 0.523438 -1.308594 0.929688 -0.75 C 1.339844 -0.195312 1.910156 0.0820312 2.644531 0.0820312 Z M 2.644531 -1.289062 C 2.386719 -1.289062 2.179688 -1.445312 2.027344 -1.773438 C 1.871094 -2.097656 1.796875 -2.523438 1.796875 -3.0625 C 1.796875 -3.59375 1.871094 -4.019531 2.027344 -4.34375 C 2.179688 -4.671875 2.386719 -4.835938 2.644531 -4.835938 C 2.898438 -4.835938 3.105469 -4.671875 3.257812 -4.34375 C 3.40625 -4.019531 3.488281 -3.59375 3.488281 -3.0625 C 3.488281 -2.523438 3.40625 -2.097656 3.257812 -1.773438 C 3.105469 -1.445312 2.898438 -1.289062 2.644531 -1.289062 Z M 2.644531 -1.289062 "/></g></g></g><g fill="#fff3e1" fill-opacity="1"><g transform="translate(269.195992, 134.069826)"><g><path d="M 2.644531 0.0820312 C 3.375 0.0820312 3.9375 -0.195312 4.34375 -0.75 C 4.753906 -1.308594 4.957031 -2.074219 4.957031 -3.0625 C 4.957031 -4.042969 4.753906 -4.820312 4.34375 -5.375 C 3.9375 -5.929688 3.375 -6.207031 2.644531 -6.207031 C 1.910156 -6.207031 1.339844 -5.929688 0.929688 -5.375 C 0.523438 -4.820312 0.328125 -4.042969 0.328125 -3.0625 C 0.328125 -2.074219 0.523438 -1.308594 0.929688 -0.75 C 1.339844 -0.195312 1.910156 0.0820312 2.644531 0.0820312 Z M 2.644531 -1.289062 C 2.386719 -1.289062 2.179688 -1.445312 2.027344 -1.773438 C 1.871094 -2.097656 1.796875 -2.523438 1.796875 -3.0625 C 1.796875 -3.59375 1.871094 -4.019531 2.027344 -4.34375 C 2.179688 -4.671875 2.386719 -4.835938 2.644531 -4.835938 C 2.898438 -4.835938 3.105469 -4.671875 3.257812 -4.34375 C 3.40625 -4.019531 3.488281 -3.59375 3.488281 -3.0625 C 3.488281 -2.523438 3.40625 -2.097656 3.257812 -1.773438 C 3.105469 -1.445312 2.898438 -1.289062 2.644531 -1.289062 Z M 2.644531 -1.289062 "/></g></g></g><g fill="#fff3e1" fill-opacity="1"><g transform="translate(274.479623, 134.069826)"><g><path d="M 2.644531 0.0820312 C 3.375 0.0820312 3.9375 -0.195312 4.34375 -0.75 C 4.753906 -1.308594 4.957031 -2.074219 4.957031 -3.0625 C 4.957031 -4.042969 4.753906 -4.820312 4.34375 -5.375 C 3.9375 -5.929688 3.375 -6.207031 2.644531 -6.207031 C 1.910156 -6.207031 1.339844 -5.929688 0.929688 -5.375 C 0.523438 -4.820312 0.328125 -4.042969 0.328125 -3.0625 C 0.328125 -2.074219 0.523438 -1.308594 0.929688 -0.75 C 1.339844 -0.195312 1.910156 0.0820312 2.644531 0.0820312 Z M 2.644531 -1.289062 C 2.386719 -1.289062 2.179688 -1.445312 2.027344 -1.773438 C 1.871094 -2.097656 1.796875 -2.523438 1.796875 -3.0625 C 1.796875 -3.59375 1.871094 -4.019531 2.027344 -4.34375 C 2.179688 -4.671875 2.386719 -4.835938 2.644531 -4.835938 C 2.898438 -4.835938 3.105469 -4.671875 3.257812 -4.34375 C 3.40625 -4.019531 3.488281 -3.59375 3.488281 -3.0625 C 3.488281 -2.523438 3.40625 -2.097656 3.257812 -1.773438 C 3.105469 -1.445312 2.898438 -1.289062 2.644531 -1.289062 Z M 2.644531 -1.289062 "/></g></g></g><g clip-path="url(#fa88c54ea6)"><g clip-path="url(#70058cfedd)"><g clip-path="url(#ca2ddd129c)"><g clip-path="url(#22cd4a76b6)"><path fill="#3871c1" d="M 258.988281 160.808594 C 282.488281 157.261719 300.5625 140.128906 306.425781 118.609375 C 308.007812 112.789062 313.027344 108.542969 319.023438 107.800781 C 330.136719 106.421875 338.792969 117.324219 334.839844 127.789062 C 325.65625 152.117188 301.109375 171.316406 274.246094 175.367188 C 242.339844 180.183594 212.265625 162.164062 200.648438 133.566406 C 212.445312 152.957031 235.113281 164.410156 258.988281 160.808594 " fill-opacity="1" fill-rule="nonzero"/></g></g></g></g><g clip-path="url(#8d83d6366f)"><g clip-path="url(#2c401edd9a)"><g clip-path="url(#a96e792792)"><g clip-path="url(#28da048345)"><path fill="#99def9" d="M 291.589844 101.210938 C 291.167969 98.414062 290.539062 95.699219 289.730469 93.074219 C 288.6875 89.710938 290.90625 86.210938 294.394531 85.683594 C 297.359375 85.238281 300.152344 87.136719 300.871094 90.042969 C 301.285156 91.703125 301.621094 93.394531 301.882812 95.121094 C 305.660156 120.164062 292 143.820312 269.988281 153.796875 C 285.785156 141.964844 294.734375 122.070312 291.589844 101.210938 " fill-opacity="1" fill-rule="nonzero"/></g></g></g></g><g clip-path="url(#5296ee2077)"><g clip-path="url(#9b8cb8eb2b)"><g clip-path="url(#85a620f60e)"><g clip-path="url(#297563ab3c)"><path fill="#60b3e4" d="M 348.929688 120.855469 C 350.90625 116.328125 352.511719 111.730469 353.75 107.101562 C 355.347656 101.15625 361.878906 98.035156 367.523438 100.496094 C 372.324219 102.585938 374.6875 107.984375 373.046875 112.949219 C 372.109375 115.789062 371.035156 118.605469 369.816406 121.398438 C 352.09375 161.945312 309.882812 184.257812 268.058594 178.585938 C 302.421875 175.746094 334.167969 154.628906 348.929688 120.855469 " fill-opacity="1" fill-rule="nonzero"/></g></g></g></g><g clip-path="url(#43a8619f76)"><g clip-path="url(#14ec0a6030)"><g clip-path="url(#bf19028f41)"><g clip-path="url(#c728aa3fc8)"><path fill="#51ade5" d="M 255.019531 147.910156 C 256.445312 146.964844 257.777344 145.929688 259.011719 144.816406 C 260.59375 143.386719 263.078125 143.707031 264.257812 145.484375 C 265.257812 146.992188 264.925781 149.003906 263.515625 150.140625 C 262.710938 150.789062 261.867188 151.40625 260.984375 151.988281 C 248.199219 160.449219 231.730469 159.011719 220.648438 149.503906 C 231.167969 155.132812 244.371094 154.957031 255.019531 147.910156 " fill-opacity="1" fill-rule="nonzero"/></g></g></g></g><g clip-path="url(#d67c9f58d7)"><g clip-path="url(#ff4b75152e)"><g clip-path="url(#d953508170)"><g clip-path="url(#29e3161cdd)"><path fill="#51ade5" d="M 334.707031 68.796875 C 336.671875 67.472656 339.371094 68.027344 340.605469 70.046875 C 351.582031 88.019531 341.359375 104.796875 341.359375 104.796875 C 344.90625 91.65625 337.976562 80.257812 333.738281 74.824219 C 332.25 72.917969 332.699219 70.148438 334.707031 68.796875 " fill-opacity="1" fill-rule="nonzero"/></g></g></g></g><g clip-path="url(#43f6d35f53)"><g clip-path="url(#14d783d320)"><g clip-path="url(#a37ce845c0)"><g clip-path="url(#552942a04c)"><path fill="#3871c1" d="M 115.570312 94.292969 C 92.105469 98.039062 74.175781 115.328125 68.5 136.894531 C 66.96875 142.730469 61.984375 147.019531 55.996094 147.8125 C 44.894531 149.289062 36.144531 138.460938 40.007812 127.960938 C 48.980469 103.554688 73.359375 84.148438 100.1875 79.863281 C 132.054688 74.773438 162.28125 92.53125 174.144531 121.027344 C 162.179688 101.742188 139.414062 90.484375 115.570312 94.292969 " fill-opacity="1" fill-rule="nonzero"/></g></g></g></g><g clip-path="url(#c0830c403b)"><g clip-path="url(#c654d64ee9)"><g clip-path="url(#bec19ef291)"><g clip-path="url(#ab40676d97)"><path fill="#99def9" d="M 83.484375 154.167969 C 83.933594 156.960938 84.582031 159.671875 85.414062 162.285156 C 86.484375 165.640625 84.296875 169.160156 80.816406 169.714844 C 77.855469 170.1875 75.042969 168.316406 74.296875 165.414062 C 73.871094 163.757812 73.519531 162.070312 73.246094 160.347656 C 69.25 135.335938 82.707031 111.5625 104.632812 101.398438 C 88.9375 113.367188 80.160156 133.335938 83.484375 154.167969 " fill-opacity="1" fill-rule="nonzero"/></g></g></g></g><g clip-path="url(#3dbdda0603)"><g clip-path="url(#a560b5d430)"><g clip-path="url(#d06cb5050e)"><g clip-path="url(#4d6709f09c)"><path fill="#60b3e4" d="M 25.980469 135.015625 C 24.039062 139.5625 22.476562 144.171875 21.273438 148.8125 C 19.730469 154.769531 13.226562 157.945312 7.5625 155.535156 C 2.742188 153.488281 0.332031 148.109375 1.929688 143.128906 C 2.84375 140.285156 3.894531 137.457031 5.089844 134.65625 C 22.460938 93.957031 64.476562 71.28125 106.347656 76.59375 C 72.011719 79.730469 40.445312 101.117188 25.980469 135.015625 " fill-opacity="1" fill-rule="nonzero"/></g></g></g></g><g clip-path="url(#534de086b6)"><g clip-path="url(#5233011876)"><g clip-path="url(#58d94e0d02)"><g clip-path="url(#229442542c)"><path fill="#51ade5" d="M 119.652344 107.15625 C 118.230469 108.113281 116.910156 109.160156 115.6875 110.28125 C 114.117188 111.726562 111.628906 111.425781 110.433594 109.664062 C 109.421875 108.164062 109.734375 106.144531 111.136719 104.996094 C 111.9375 104.339844 112.777344 103.714844 113.652344 103.128906 C 126.363281 94.558594 142.84375 95.855469 154.007812 105.265625 C 143.441406 99.726562 130.238281 100.019531 119.652344 107.15625 " fill-opacity="1" fill-rule="nonzero"/></g></g></g></g><g clip-path="url(#b8a1d30241)"><g clip-path="url(#e3e29ef6fc)"><g clip-path="url(#ef35fbe47d)"><g clip-path="url(#fd45c0fcbc)"><path fill="#51ade5" d="M 40.648438 186.953125 C 38.691406 188.292969 35.992188 187.761719 34.742188 185.75 C 23.609375 167.875 33.6875 151.007812 33.6875 151.007812 C 30.253906 164.179688 37.277344 175.519531 41.566406 180.917969 C 43.070312 182.808594 42.644531 185.582031 40.648438 186.953125 " fill-opacity="1" fill-rule="nonzero"/></g></g></g></g><g clip-path="url(#9d67fb4b30)"><path fill="#2f272a" d="M 214.890625 131.101562 C 214.890625 131.992188 214.847656 132.878906 214.761719 133.765625 C 214.675781 134.648438 214.542969 135.53125 214.371094 136.402344 C 214.195312 137.273438 213.980469 138.136719 213.722656 138.988281 C 213.464844 139.839844 213.164062 140.675781 212.824219 141.5 C 212.484375 142.320312 212.105469 143.125 211.683594 143.910156 C 211.265625 144.695312 210.808594 145.457031 210.3125 146.195312 C 209.820312 146.9375 209.289062 147.648438 208.726562 148.339844 C 208.160156 149.027344 207.5625 149.683594 206.933594 150.3125 C 206.304688 150.941406 205.648438 151.539062 204.960938 152.105469 C 204.269531 152.667969 203.558594 153.199219 202.816406 153.691406 C 202.078125 154.1875 201.316406 154.644531 200.53125 155.0625 C 199.746094 155.484375 198.941406 155.863281 198.121094 156.203125 C 197.296875 156.542969 196.460938 156.84375 195.609375 157.101562 C 194.757812 157.359375 193.894531 157.574219 193.023438 157.75 C 192.152344 157.921875 191.269531 158.054688 190.386719 158.140625 C 189.5 158.226562 188.613281 158.269531 187.722656 158.269531 C 186.832031 158.269531 185.945312 158.226562 185.058594 158.140625 C 184.175781 158.054688 183.296875 157.921875 182.421875 157.75 C 181.550781 157.574219 180.6875 157.359375 179.835938 157.101562 C 178.984375 156.84375 178.148438 156.542969 177.324219 156.203125 C 176.503906 155.863281 175.699219 155.484375 174.914062 155.0625 C 174.128906 154.644531 173.367188 154.1875 172.628906 153.691406 C 171.886719 153.199219 171.175781 152.667969 170.488281 152.105469 C 169.796875 151.539062 169.140625 150.941406 168.511719 150.3125 C 167.882812 149.683594 167.285156 149.027344 166.71875 148.339844 C 166.15625 147.648438 165.625 146.9375 165.132812 146.195312 C 164.636719 145.457031 164.179688 144.695312 163.761719 143.910156 C 163.339844 143.125 162.960938 142.320312 162.621094 141.5 C 162.28125 140.675781 161.980469 139.839844 161.722656 138.988281 C 161.464844 138.136719 161.25 137.273438 161.074219 136.402344 C 160.902344 135.53125 160.769531 134.648438 160.683594 133.765625 C 160.597656 132.878906 160.554688 131.992188 160.554688 131.101562 C 160.554688 130.210938 160.597656 129.324219 160.683594 128.4375 C 160.769531 127.554688 160.902344 126.675781 161.074219 125.800781 C 161.25 124.929688 161.464844 124.066406 161.722656 123.214844 C 161.980469 122.363281 162.28125 121.527344 162.621094 120.703125 C 162.960938 119.882812 163.339844 119.078125 163.761719 118.292969 C 164.179688 117.507812 164.636719 116.746094 165.132812 116.007812 C 165.625 115.265625 166.15625 114.554688 166.71875 113.867188 C 167.285156 113.175781 167.882812 112.519531 168.511719 111.890625 C 169.140625 111.261719 169.796875 110.664062 170.488281 110.097656 C 171.175781 109.535156 171.886719 109.003906 172.628906 108.511719 C 173.367188 108.015625 174.128906 107.558594 174.914062 107.140625 C 175.699219 106.71875 176.503906 106.339844 177.324219 106 C 178.148438 105.660156 178.984375 105.359375 179.835938 105.101562 C 180.6875 104.84375 181.550781 104.628906 182.421875 104.453125 C 183.296875 104.28125 184.175781 104.148438 185.058594 104.0625 C 185.945312 103.976562 186.832031 103.933594 187.722656 103.933594 C 188.613281 103.933594 189.5 103.976562 190.386719 104.0625 C 191.269531 104.148438 192.152344 104.28125 193.023438 104.453125 C 193.894531 104.628906 194.757812 104.84375 195.609375 105.101562 C 196.460938 105.359375 197.296875 105.660156 198.121094 106 C 198.941406 106.339844 199.746094 106.71875 200.53125 107.140625 C 201.316406 107.558594 202.078125 108.015625 202.816406 108.511719 C 203.558594 109.003906 204.269531 109.535156 204.960938 110.097656 C 205.648438 110.664062 206.304688 111.261719 206.933594 111.890625 C 207.5625 112.519531 208.160156 113.175781 208.726562 113.867188 C 209.289062 114.554688 209.820312 115.265625 210.3125 116.007812 C 210.808594 116.746094 211.265625 117.507812 211.683594 118.292969 C 212.105469 119.078125 212.484375 119.882812 212.824219 120.703125 C 213.164062 121.527344 213.464844 122.363281 213.722656 123.214844 C 213.980469 124.066406 214.195312 124.929688 214.371094 125.800781 C 214.542969 126.675781 214.675781 127.554688 214.761719 128.4375 C 214.847656 129.324219 214.890625 130.210938 214.890625 131.101562 Z M 214.890625 131.101562 " fill-opacity="1" fill-rule="nonzero"/></g><g clip-path="url(#f14f13557d)"><path fill="#000000" d="M 187.539062 152.878906 C 175.410156 152.878906 165.582031 142.984375 165.582031 130.917969 C 165.582031 118.855469 175.410156 108.960938 187.539062 108.960938 C 199.671875 108.960938 209.5 118.789062 209.5 130.917969 C 209.5 143.050781 199.605469 152.878906 187.539062 152.878906 Z M 187.539062 110.316406 C 176.152344 110.316406 166.9375 119.53125 166.9375 130.917969 C 166.9375 142.304688 176.152344 151.523438 187.539062 151.523438 C 198.925781 151.523438 208.144531 142.304688 208.144531 130.917969 C 208.144531 119.53125 198.859375 110.316406 187.539062 110.316406 Z M 187.539062 110.316406 " fill-opacity="1" fill-rule="nonzero"/></g><g clip-path="url(#ae96c863d5)"><path fill="#737373" d="M 191.34375 130.867188 C 191.34375 131.386719 191.246094 131.890625 191.046875 132.371094 C 190.847656 132.855469 190.566406 133.28125 190.199219 133.648438 C 189.835938 134.019531 189.414062 134.300781 188.933594 134.5 C 188.457031 134.703125 187.957031 134.800781 187.441406 134.800781 C 186.921875 134.800781 186.425781 134.703125 185.945312 134.5 C 185.46875 134.300781 185.046875 134.019531 184.679688 133.648438 C 184.316406 133.28125 184.03125 132.855469 183.835938 132.371094 C 183.636719 131.890625 183.539062 131.386719 183.539062 130.867188 C 183.539062 130.34375 183.636719 129.84375 183.835938 129.359375 C 184.03125 128.878906 184.316406 128.453125 184.679688 128.082031 C 185.046875 127.714844 185.46875 127.429688 185.945312 127.230469 C 186.425781 127.03125 186.921875 126.929688 187.441406 126.929688 C 187.957031 126.929688 188.457031 127.03125 188.933594 127.230469 C 189.414062 127.429688 189.835938 127.714844 190.199219 128.082031 C 190.566406 128.453125 190.847656 128.878906 191.046875 129.359375 C 191.246094 129.84375 191.34375 130.34375 191.34375 130.867188 Z M 191.34375 130.867188 " fill-opacity="1" fill-rule="nonzero"/></g><g clip-path="url(#e04aff7464)"><path fill="#545454" d="M 190.148438 127.949219 C 189.4375 127.277344 188.488281 126.867188 187.441406 126.867188 C 185.253906 126.867188 183.476562 128.660156 183.476562 130.867188 C 183.476562 132.121094 184.054688 133.234375 184.945312 133.972656 C 185.65625 134.644531 186.609375 135.054688 187.65625 135.054688 C 189.839844 135.054688 191.621094 133.261719 191.621094 131.054688 C 191.625 129.808594 191.046875 128.6875 190.148438 127.949219 Z M 183.539062 130.867188 C 183.539062 128.691406 185.285156 126.929688 187.441406 126.929688 C 189.597656 126.929688 191.34375 128.691406 191.34375 130.867188 C 191.34375 133.039062 189.597656 134.800781 187.441406 134.800781 C 185.285156 134.800781 183.539062 133.035156 183.539062 130.867188 Z M 183.539062 130.867188 " fill-opacity="1" fill-rule="nonzero"/></g></svg>